<svg width="125.000000" height="24.000000" viewBox="0 0 125 24" fill="none" xmlns="http://www.w3.org/2000/svg" xmlns:xlink="http://www.w3.org/1999/xlink">
	<desc>
			Created with Pixso.
	</desc>
	<defs/>
	<path id="Star 1" d="M11.8 0.58L9.35 8.15C9.32 8.23 9.24 8.29 9.16 8.29L1.2 8.29C1 8.29 0.92 8.53 1.08 8.65L7.52 13.33C7.59 13.38 7.62 13.47 7.59 13.55L5.13 21.12C5.07 21.3 5.28 21.46 5.44 21.34L11.88 16.66C11.95 16.61 12.04 16.61 12.11 16.66L18.55 21.34C18.71 21.46 18.92 21.3 18.86 21.12L16.4 13.55C16.37 13.47 16.4 13.38 16.47 13.33L22.91 8.65C23.07 8.53 22.99 8.29 22.79 8.29L14.83 8.29C14.75 8.29 14.67 8.23 14.64 8.15L12.19 0.58C12.12 0.4 11.87 0.4 11.8 0.58Z" fill="#FFC239" fill-opacity="1.000000" fill-rule="evenodd"/>
	<path id="Star 2" d="M37.31 0.55L34.73 8.15C34.71 8.23 34.63 8.29 34.54 8.29L26.24 8.29C26.05 8.29 25.97 8.54 26.13 8.65L32.83 13.33C32.9 13.38 32.93 13.47 32.91 13.55L30.34 21.13C30.28 21.31 30.49 21.47 30.65 21.36L37.38 16.66C37.45 16.61 37.54 16.61 37.61 16.66L44.34 21.36C44.5 21.47 44.71 21.31 44.65 21.13L42.08 13.55C42.06 13.47 42.09 13.38 42.16 13.33L48.86 8.65C49.02 8.54 48.94 8.29 48.75 8.29L40.45 8.29C40.36 8.29 40.28 8.23 40.26 8.15L37.68 0.55C37.62 0.37 37.37 0.37 37.31 0.55Z" fill="#FFC239" fill-opacity="1.000000" fill-rule="evenodd"/>
	<path id="Star 3" d="M62.31 0.55L59.73 8.15C59.71 8.23 59.63 8.29 59.54 8.29L51.24 8.29C51.05 8.29 50.97 8.54 51.13 8.65L57.83 13.33C57.9 13.38 57.93 13.47 57.91 13.55L55.34 21.13C55.28 21.31 55.49 21.47 55.65 21.36L62.38 16.66C62.45 16.61 62.54 16.61 62.61 16.66L69.34 21.36C69.5 21.47 69.71 21.31 69.65 21.13L67.08 13.55C67.06 13.47 67.09 13.38 67.16 13.33L73.86 8.65C74.02 8.54 73.94 8.29 73.75 8.29L65.45 8.29C65.36 8.29 65.28 8.23 65.26 8.15L62.68 0.55C62.62 0.37 62.37 0.37 62.31 0.55Z" fill="#FFC239" fill-opacity="1.000000" fill-rule="evenodd"/>
	<path id="Star 4" d="M87.31 0.55L84.73 8.15C84.71 8.23 84.63 8.29 84.54 8.29L76.24 8.29C76.05 8.29 75.97 8.54 76.13 8.65L82.83 13.33C82.9 13.38 82.93 13.47 82.91 13.55L80.34 21.13C80.28 21.31 80.49 21.47 80.65 21.36L87.38 16.66C87.45 16.61 87.54 16.61 87.61 16.66L94.34 21.36C94.5 21.47 94.71 21.31 94.65 21.13L92.08 13.55C92.06 13.47 92.09 13.38 92.16 13.33L98.86 8.65C99.02 8.54 98.94 8.29 98.75 8.29L90.45 8.29C90.36 8.29 90.28 8.23 90.26 8.15L87.68 0.55C87.62 0.37 87.37 0.37 87.31 0.55Z" fill="#FFC239" fill-opacity="1.000000" fill-rule="evenodd"/>
	<path id="Star 5" d="M112.81 0.58L110.35 8.15C110.32 8.23 110.24 8.29 110.16 8.29L102.2 8.29C102 8.29 101.92 8.53 102.08 8.65L108.52 13.33C108.59 13.38 108.62 13.47 108.59 13.55L106.13 21.12C106.07 21.3 106.28 21.46 106.44 21.34L112.88 16.66C112.95 16.61 113.04 16.61 113.11 16.66L119.55 21.34C119.71 21.46 119.92 21.3 119.86 21.12L117.4 13.55C117.37 13.47 117.4 13.38 117.47 13.33L123.91 8.65C124.07 8.53 123.99 8.29 123.79 8.29L115.84 8.29C115.75 8.29 115.67 8.23 115.64 8.15L113.19 0.58C113.13 0.4 112.87 0.4 112.81 0.58Z" fill="#FFC239" fill-opacity="1.000000" fill-rule="evenodd"/>
</svg>
