<svg width="125.000000" height="24.000000" viewBox="0 0 125 24" fill="none" xmlns="http://www.w3.org/2000/svg" xmlns:xlink="http://www.w3.org/1999/xlink">
	<desc>
			Created with Pixso.
	</desc>
	<defs/>
	<path id="Star 1" d="M11.81 0.46L9.35 7.87C9.32 7.95 9.24 8 9.16 8L1.21 8C1.01 8 0.93 8.25 1.09 8.37L7.52 12.93C7.59 12.98 7.62 13.08 7.59 13.16L5.13 20.55C5.07 20.74 5.28 20.89 5.44 20.78L11.88 16.2C11.95 16.15 12.04 16.15 12.11 16.2L18.55 20.78C18.71 20.89 18.92 20.74 18.86 20.55L16.4 13.16C16.37 13.08 16.4 12.98 16.47 12.93L22.9 8.37C23.06 8.25 22.98 8 22.78 8L14.83 8C14.75 8 14.67 7.95 14.64 7.87L12.18 0.46C12.12 0.28 11.87 0.28 11.81 0.46Z" fill="#FFC239" fill-opacity="1.000000" fill-rule="evenodd"/>
	<path id="Star 2" d="M37.31 0.44L34.74 7.87C34.71 7.95 34.63 8 34.55 8L26.25 8C26.06 8 25.98 8.26 26.14 8.37L32.83 12.93C32.9 12.98 32.93 13.08 32.9 13.16L30.35 20.56C30.28 20.74 30.49 20.9 30.65 20.79L37.38 16.19C37.45 16.15 37.54 16.15 37.61 16.19L44.34 20.79C44.5 20.9 44.71 20.74 44.64 20.56L42.09 13.16C42.06 13.08 42.09 12.98 42.16 12.93L48.85 8.37C49.01 8.26 48.93 8 48.74 8L40.44 8C40.36 8 40.28 7.95 40.25 7.87L37.68 0.44C37.62 0.26 37.37 0.26 37.31 0.44Z" fill="#FFC239" fill-opacity="1.000000" fill-rule="evenodd"/>
	<path id="Star 3" d="M62.31 0.44L59.74 7.87C59.71 7.95 59.63 8 59.55 8L51.25 8C51.06 8 50.98 8.26 51.14 8.37L57.83 12.93C57.9 12.98 57.93 13.08 57.9 13.16L55.35 20.56C55.28 20.74 55.49 20.9 55.65 20.79L62.38 16.19C62.45 16.15 62.54 16.15 62.61 16.19L69.34 20.79C69.5 20.9 69.71 20.74 69.64 20.56L67.09 13.16C67.06 13.08 67.09 12.98 67.16 12.93L73.85 8.37C74.01 8.26 73.93 8 73.74 8L65.44 8C65.36 8 65.28 7.95 65.25 7.87L62.68 0.44C62.62 0.26 62.37 0.26 62.31 0.44Z" fill="#FFC239" fill-opacity="1.000000" fill-rule="evenodd"/>
	<path id="Star 4" d="M87.31 0.44L84.74 7.87C84.71 7.95 84.63 8 84.55 8L76.25 8C76.06 8 75.98 8.26 76.14 8.37L82.83 12.93C82.9 12.98 82.93 13.08 82.9 13.16L80.35 20.56C80.28 20.74 80.49 20.9 80.65 20.79L87.38 16.19C87.45 16.15 87.54 16.15 87.61 16.19L94.34 20.79C94.5 20.9 94.71 20.74 94.64 20.56L92.09 13.16C92.06 13.08 92.09 12.98 92.16 12.93L98.85 8.37C99.01 8.26 98.93 8 98.74 8L90.44 8C90.36 8 90.28 7.95 90.25 7.87L87.68 0.44C87.62 0.26 87.37 0.26 87.31 0.44Z" fill="#FFC239" fill-opacity="1.000000" fill-rule="evenodd"/>
	<path id="Star 5" d="M112.81 0.46L110.35 7.87C110.32 7.95 110.24 8 110.16 8L102.21 8C102.01 8 101.93 8.25 102.09 8.37L108.52 12.93C108.59 12.98 108.62 13.08 108.59 13.16L106.14 20.55C106.07 20.74 106.28 20.89 106.44 20.78L112.88 16.2C112.95 16.15 113.04 16.15 113.11 16.2L119.55 20.78C119.71 20.89 119.92 20.74 119.86 20.55L117.4 13.16C117.37 13.08 117.4 12.98 117.47 12.93L123.9 8.37C124.06 8.25 123.98 8 123.78 8L115.83 8C115.75 8 115.67 7.95 115.64 7.87L113.18 0.46C113.12 0.28 112.87 0.28 112.81 0.46Z" fill="#FFC239" fill-opacity="1.000000" fill-rule="evenodd"/>
</svg>
